{
 "cells": [
  {
   "cell_type": "code",
   "execution_count": 1,
   "id": "03928054-6401-4019-af53-9ecf8aca7f7e",
   "metadata": {},
   "outputs": [],
   "source": [
    "import pandas as pd\n",
    "import joblib\n",
    "import numpy as np\n",
    "from sklearn.impute import SimpleImputer\n",
    "\n",
    "nb15_dataset = pd.read_csv(\"C:/Users/katsa/OneDrive/Jupyter_files/shallow_models_cic_nb15/nb_12_feat_test_dataset.csv\")"
   ]
  },
  {
   "cell_type": "code",
   "execution_count": 2,
   "id": "552f9db4-3410-48e3-9838-6f3ae910b10a",
   "metadata": {},
   "outputs": [
    {
     "data": {
      "text/html": [
       "<div>\n",
       "<style scoped>\n",
       "    .dataframe tbody tr th:only-of-type {\n",
       "        vertical-align: middle;\n",
       "    }\n",
       "\n",
       "    .dataframe tbody tr th {\n",
       "        vertical-align: top;\n",
       "    }\n",
       "\n",
       "    .dataframe thead th {\n",
       "        text-align: right;\n",
       "    }\n",
       "</style>\n",
       "<table border=\"1\" class=\"dataframe\">\n",
       "  <thead>\n",
       "    <tr style=\"text-align: right;\">\n",
       "      <th></th>\n",
       "      <th>dsport</th>\n",
       "      <th>dur</th>\n",
       "      <th>Spkts</th>\n",
       "      <th>Dpkts</th>\n",
       "      <th>sbytes</th>\n",
       "      <th>dbytes</th>\n",
       "      <th>smeansz</th>\n",
       "      <th>dmeansz</th>\n",
       "      <th>flow_bytes/s</th>\n",
       "      <th>flow_packets/s</th>\n",
       "      <th>fwd_packets/s</th>\n",
       "      <th>bwd_packets/s</th>\n",
       "      <th>Label</th>\n",
       "    </tr>\n",
       "  </thead>\n",
       "  <tbody>\n",
       "    <tr>\n",
       "      <th>0</th>\n",
       "      <td>53.0</td>\n",
       "      <td>1.148</td>\n",
       "      <td>2</td>\n",
       "      <td>2</td>\n",
       "      <td>146</td>\n",
       "      <td>178</td>\n",
       "      <td>73</td>\n",
       "      <td>89</td>\n",
       "      <td>2.822300e+08</td>\n",
       "      <td>3.484321e+06</td>\n",
       "      <td>1.742160e+06</td>\n",
       "      <td>1.742160e+06</td>\n",
       "      <td>BENIGN</td>\n",
       "    </tr>\n",
       "    <tr>\n",
       "      <th>1</th>\n",
       "      <td>80.0</td>\n",
       "      <td>668.762</td>\n",
       "      <td>10</td>\n",
       "      <td>8</td>\n",
       "      <td>810</td>\n",
       "      <td>354</td>\n",
       "      <td>81</td>\n",
       "      <td>44</td>\n",
       "      <td>1.740530e+06</td>\n",
       "      <td>2.691540e+04</td>\n",
       "      <td>1.495300e+04</td>\n",
       "      <td>1.196240e+04</td>\n",
       "      <td>ATTACK</td>\n",
       "    </tr>\n",
       "    <tr>\n",
       "      <th>2</th>\n",
       "      <td>37436.0</td>\n",
       "      <td>20.494</td>\n",
       "      <td>56</td>\n",
       "      <td>58</td>\n",
       "      <td>3390</td>\n",
       "      <td>41676</td>\n",
       "      <td>61</td>\n",
       "      <td>719</td>\n",
       "      <td>2.198985e+09</td>\n",
       "      <td>5.562604e+06</td>\n",
       "      <td>2.732507e+06</td>\n",
       "      <td>2.830097e+06</td>\n",
       "      <td>BENIGN</td>\n",
       "    </tr>\n",
       "    <tr>\n",
       "      <th>3</th>\n",
       "      <td>33741.0</td>\n",
       "      <td>27.939</td>\n",
       "      <td>64</td>\n",
       "      <td>66</td>\n",
       "      <td>3806</td>\n",
       "      <td>52378</td>\n",
       "      <td>59</td>\n",
       "      <td>794</td>\n",
       "      <td>2.010952e+09</td>\n",
       "      <td>4.652994e+06</td>\n",
       "      <td>2.290705e+06</td>\n",
       "      <td>2.362289e+06</td>\n",
       "      <td>BENIGN</td>\n",
       "    </tr>\n",
       "    <tr>\n",
       "      <th>4</th>\n",
       "      <td>13439.0</td>\n",
       "      <td>104.090</td>\n",
       "      <td>4</td>\n",
       "      <td>4</td>\n",
       "      <td>544</td>\n",
       "      <td>304</td>\n",
       "      <td>136</td>\n",
       "      <td>76</td>\n",
       "      <td>8.146796e+06</td>\n",
       "      <td>7.685657e+04</td>\n",
       "      <td>3.842828e+04</td>\n",
       "      <td>3.842828e+04</td>\n",
       "      <td>BENIGN</td>\n",
       "    </tr>\n",
       "  </tbody>\n",
       "</table>\n",
       "</div>"
      ],
      "text/plain": [
       "    dsport      dur  Spkts  Dpkts  sbytes  dbytes  smeansz  dmeansz  \\\n",
       "0     53.0    1.148      2      2     146     178       73       89   \n",
       "1     80.0  668.762     10      8     810     354       81       44   \n",
       "2  37436.0   20.494     56     58    3390   41676       61      719   \n",
       "3  33741.0   27.939     64     66    3806   52378       59      794   \n",
       "4  13439.0  104.090      4      4     544     304      136       76   \n",
       "\n",
       "   flow_bytes/s  flow_packets/s  fwd_packets/s  bwd_packets/s   Label  \n",
       "0  2.822300e+08    3.484321e+06   1.742160e+06   1.742160e+06  BENIGN  \n",
       "1  1.740530e+06    2.691540e+04   1.495300e+04   1.196240e+04  ATTACK  \n",
       "2  2.198985e+09    5.562604e+06   2.732507e+06   2.830097e+06  BENIGN  \n",
       "3  2.010952e+09    4.652994e+06   2.290705e+06   2.362289e+06  BENIGN  \n",
       "4  8.146796e+06    7.685657e+04   3.842828e+04   3.842828e+04  BENIGN  "
      ]
     },
     "execution_count": 2,
     "metadata": {},
     "output_type": "execute_result"
    }
   ],
   "source": [
    "nb15_dataset = nb15_dataset.sample(frac=0.1)\n",
    "nb15_dataset.reset_index(drop=True, inplace=True)\n",
    "nb15_dataset.head()"
   ]
  },
  {
   "cell_type": "code",
   "execution_count": 3,
   "id": "c51ca1e2-6dfc-468e-bbd2-94002845bbfa",
   "metadata": {},
   "outputs": [],
   "source": [
    "# Define the discriminator model\n",
    "import torch\n",
    "from torch import nn\n",
    "\n",
    "class Discriminator(nn.Module):\n",
    "    def __init__(self):\n",
    "        super(Discriminator, self).__init__()\n",
    "        self.model = nn.Sequential(\n",
    "            nn.Linear(data_dim, 8),\n",
    "            nn.LeakyReLU(0.2, inplace=True),\n",
    "            nn.Linear(8, 4),\n",
    "            nn.LeakyReLU(0.2, inplace=True),\n",
    "            nn.Linear(4, 1),\n",
    "            nn.Sigmoid()\n",
    "        )\n",
    "\n",
    "    def forward(self, data):\n",
    "        validity = self.model(data)\n",
    "        return validity\n",
    "    \n",
    "   "
   ]
  },
  {
   "cell_type": "code",
   "execution_count": 4,
   "id": "032c0bf8-817c-47b8-a1cf-847abfca399b",
   "metadata": {},
   "outputs": [
    {
     "name": "stdout",
     "output_type": "stream",
     "text": [
      "['./models\\\\discr_model-lr=0.0002-batch=64-epochs=0.pth', './models\\\\discr_model-lr=0.0002-batch=64-epochs=1.pth', './models\\\\discr_model-lr=0.0002-batch=64-epochs=10.pth', './models\\\\discr_model-lr=0.0002-batch=64-epochs=11.pth', './models\\\\discr_model-lr=0.0002-batch=64-epochs=12.pth', './models\\\\discr_model-lr=0.0002-batch=64-epochs=13.pth', './models\\\\discr_model-lr=0.0002-batch=64-epochs=14.pth', './models\\\\discr_model-lr=0.0002-batch=64-epochs=15.pth', './models\\\\discr_model-lr=0.0002-batch=64-epochs=16.pth', './models\\\\discr_model-lr=0.0002-batch=64-epochs=17.pth', './models\\\\discr_model-lr=0.0002-batch=64-epochs=18.pth', './models\\\\discr_model-lr=0.0002-batch=64-epochs=19.pth', './models\\\\discr_model-lr=0.0002-batch=64-epochs=2.pth', './models\\\\discr_model-lr=0.0002-batch=64-epochs=20.pth', './models\\\\discr_model-lr=0.0002-batch=64-epochs=21.pth', './models\\\\discr_model-lr=0.0002-batch=64-epochs=22.pth', './models\\\\discr_model-lr=0.0002-batch=64-epochs=23.pth', './models\\\\discr_model-lr=0.0002-batch=64-epochs=24.pth', './models\\\\discr_model-lr=0.0002-batch=64-epochs=25.pth', './models\\\\discr_model-lr=0.0002-batch=64-epochs=26.pth', './models\\\\discr_model-lr=0.0002-batch=64-epochs=27.pth', './models\\\\discr_model-lr=0.0002-batch=64-epochs=28.pth', './models\\\\discr_model-lr=0.0002-batch=64-epochs=29.pth', './models\\\\discr_model-lr=0.0002-batch=64-epochs=3.pth', './models\\\\discr_model-lr=0.0002-batch=64-epochs=30.pth', './models\\\\discr_model-lr=0.0002-batch=64-epochs=31.pth', './models\\\\discr_model-lr=0.0002-batch=64-epochs=32.pth', './models\\\\discr_model-lr=0.0002-batch=64-epochs=33.pth', './models\\\\discr_model-lr=0.0002-batch=64-epochs=34.pth', './models\\\\discr_model-lr=0.0002-batch=64-epochs=35.pth', './models\\\\discr_model-lr=0.0002-batch=64-epochs=36.pth', './models\\\\discr_model-lr=0.0002-batch=64-epochs=37.pth', './models\\\\discr_model-lr=0.0002-batch=64-epochs=38.pth', './models\\\\discr_model-lr=0.0002-batch=64-epochs=39.pth', './models\\\\discr_model-lr=0.0002-batch=64-epochs=4.pth', './models\\\\discr_model-lr=0.0002-batch=64-epochs=40.pth', './models\\\\discr_model-lr=0.0002-batch=64-epochs=41.pth', './models\\\\discr_model-lr=0.0002-batch=64-epochs=42.pth', './models\\\\discr_model-lr=0.0002-batch=64-epochs=43.pth', './models\\\\discr_model-lr=0.0002-batch=64-epochs=44.pth', './models\\\\discr_model-lr=0.0002-batch=64-epochs=45.pth', './models\\\\discr_model-lr=0.0002-batch=64-epochs=46.pth', './models\\\\discr_model-lr=0.0002-batch=64-epochs=47.pth', './models\\\\discr_model-lr=0.0002-batch=64-epochs=48.pth', './models\\\\discr_model-lr=0.0002-batch=64-epochs=49.pth', './models\\\\discr_model-lr=0.0002-batch=64-epochs=5.pth', './models\\\\discr_model-lr=0.0002-batch=64-epochs=50.pth', './models\\\\discr_model-lr=0.0002-batch=64-epochs=51.pth', './models\\\\discr_model-lr=0.0002-batch=64-epochs=52.pth', './models\\\\discr_model-lr=0.0002-batch=64-epochs=53.pth', './models\\\\discr_model-lr=0.0002-batch=64-epochs=54.pth', './models\\\\discr_model-lr=0.0002-batch=64-epochs=55.pth', './models\\\\discr_model-lr=0.0002-batch=64-epochs=56.pth', './models\\\\discr_model-lr=0.0002-batch=64-epochs=57.pth', './models\\\\discr_model-lr=0.0002-batch=64-epochs=58.pth', './models\\\\discr_model-lr=0.0002-batch=64-epochs=59.pth', './models\\\\discr_model-lr=0.0002-batch=64-epochs=6.pth', './models\\\\discr_model-lr=0.0002-batch=64-epochs=60.pth', './models\\\\discr_model-lr=0.0002-batch=64-epochs=61.pth', './models\\\\discr_model-lr=0.0002-batch=64-epochs=62.pth', './models\\\\discr_model-lr=0.0002-batch=64-epochs=63.pth', './models\\\\discr_model-lr=0.0002-batch=64-epochs=64.pth', './models\\\\discr_model-lr=0.0002-batch=64-epochs=65.pth', './models\\\\discr_model-lr=0.0002-batch=64-epochs=66.pth', './models\\\\discr_model-lr=0.0002-batch=64-epochs=67.pth', './models\\\\discr_model-lr=0.0002-batch=64-epochs=68.pth', './models\\\\discr_model-lr=0.0002-batch=64-epochs=69.pth', './models\\\\discr_model-lr=0.0002-batch=64-epochs=7.pth', './models\\\\discr_model-lr=0.0002-batch=64-epochs=70.pth', './models\\\\discr_model-lr=0.0002-batch=64-epochs=71.pth', './models\\\\discr_model-lr=0.0002-batch=64-epochs=72.pth', './models\\\\discr_model-lr=0.0002-batch=64-epochs=73.pth', './models\\\\discr_model-lr=0.0002-batch=64-epochs=74.pth', './models\\\\discr_model-lr=0.0002-batch=64-epochs=75.pth', './models\\\\discr_model-lr=0.0002-batch=64-epochs=76.pth', './models\\\\discr_model-lr=0.0002-batch=64-epochs=77.pth', './models\\\\discr_model-lr=0.0002-batch=64-epochs=78.pth', './models\\\\discr_model-lr=0.0002-batch=64-epochs=79.pth', './models\\\\discr_model-lr=0.0002-batch=64-epochs=8.pth', './models\\\\discr_model-lr=0.0002-batch=64-epochs=80.pth', './models\\\\discr_model-lr=0.0002-batch=64-epochs=81.pth', './models\\\\discr_model-lr=0.0002-batch=64-epochs=82.pth', './models\\\\discr_model-lr=0.0002-batch=64-epochs=83.pth', './models\\\\discr_model-lr=0.0002-batch=64-epochs=84.pth', './models\\\\discr_model-lr=0.0002-batch=64-epochs=85.pth', './models\\\\discr_model-lr=0.0002-batch=64-epochs=86.pth', './models\\\\discr_model-lr=0.0002-batch=64-epochs=87.pth', './models\\\\discr_model-lr=0.0002-batch=64-epochs=88.pth', './models\\\\discr_model-lr=0.0002-batch=64-epochs=89.pth', './models\\\\discr_model-lr=0.0002-batch=64-epochs=9.pth', './models\\\\discr_model-lr=0.0002-batch=64-epochs=90.pth', './models\\\\discr_model-lr=0.0002-batch=64-epochs=91.pth', './models\\\\discr_model-lr=0.0002-batch=64-epochs=92.pth', './models\\\\discr_model-lr=0.0002-batch=64-epochs=93.pth', './models\\\\discr_model-lr=0.0002-batch=64-epochs=94.pth', './models\\\\discr_model-lr=0.0002-batch=64-epochs=95.pth', './models\\\\discr_model-lr=0.0002-batch=64-epochs=96.pth', './models\\\\discr_model-lr=0.0002-batch=64-epochs=97.pth', './models\\\\discr_model-lr=0.0002-batch=64-epochs=98.pth', './models\\\\discr_model-lr=0.0002-batch=64-epochs=99.pth']\n"
     ]
    }
   ],
   "source": [
    "# save all the different network configurations\n",
    "import glob\n",
    "\n",
    "discr_models_lst = glob.glob('./models/discr_model*.pth')\n",
    "print(discr_models_lst)"
   ]
  },
  {
   "cell_type": "code",
   "execution_count": 5,
   "id": "d436e59d-16e5-4dcd-8585-344db3e379de",
   "metadata": {},
   "outputs": [
    {
     "data": {
      "text/plain": [
       "'discr_model-lr=0.0002-batch=64-epochs=0.'"
      ]
     },
     "execution_count": 5,
     "metadata": {},
     "output_type": "execute_result"
    }
   ],
   "source": [
    "discr_models_lst[0][9:-3]"
   ]
  },
  {
   "cell_type": "code",
   "execution_count": 6,
   "id": "cf158f6d-2b20-40e9-87a3-2f67b17f2564",
   "metadata": {},
   "outputs": [],
   "source": [
    "data_dim = 12\n",
    "discriminator = Discriminator()"
   ]
  },
  {
   "cell_type": "code",
   "execution_count": 7,
   "id": "e339d05f-5c78-460f-a51f-da437c9fae40",
   "metadata": {},
   "outputs": [],
   "source": [
    "selected_features_nb15 = ['dsport', 'dur', 'Spkts', 'Dpkts', 'sbytes', 'dbytes', 'smeansz', \n",
    "                          'dmeansz', 'flow_bytes/s', 'flow_packets/s', 'fwd_packets/s', 'bwd_packets/s']\n",
    "    "
   ]
  },
  {
   "cell_type": "code",
   "execution_count": 8,
   "id": "e3d158fa-2e2a-4dc4-907e-510b226bc92c",
   "metadata": {},
   "outputs": [
    {
     "name": "stdout",
     "output_type": "stream",
     "text": [
      "Index(['dsport', 'dur', 'Spkts', 'Dpkts', 'sbytes', 'dbytes', 'smeansz',\n",
      "       'dmeansz', 'flow_bytes/s', 'flow_packets/s', 'fwd_packets/s',\n",
      "       'bwd_packets/s', 'Label'],\n",
      "      dtype='object')\n"
     ]
    }
   ],
   "source": [
    "print(nb15_dataset.columns)"
   ]
  },
  {
   "cell_type": "code",
   "execution_count": 9,
   "id": "955611ac-e8ba-4c42-8648-da94082c92e6",
   "metadata": {},
   "outputs": [],
   "source": [
    "minmaxscaler = joblib.load('minmaxscaler')"
   ]
  },
  {
   "cell_type": "code",
   "execution_count": 10,
   "id": "9167716e-6941-48d5-b42e-4eba8aead5fe",
   "metadata": {},
   "outputs": [],
   "source": [
    "simp = SimpleImputer(keep_empty_features=True)\n",
    "\n",
    "nb15_dataset_labels = nb15_dataset['Label']\n",
    "\n",
    "nb15_dataset = nb15_dataset[selected_features_nb15]\n",
    "\n",
    "nb15_dataset.replace([np.inf, -np.inf], np.nan, inplace=True)\n",
    "\n",
    "nb15_dataset_features = simp.fit_transform(nb15_dataset)\n",
    "\n",
    "nb15_dataset_features = minmaxscaler.transform(nb15_dataset_features)\n"
   ]
  },
  {
   "cell_type": "code",
   "execution_count": 11,
   "id": "81535333-ee6a-4d08-b024-8811c2b7c514",
   "metadata": {},
   "outputs": [
    {
     "name": "stdout",
     "output_type": "stream",
     "text": [
      "Results of ./models\\discr_model-lr=0.0002-batch=64-epochs=0.pth ...\n",
      "Number of total samples: 10160 | Number of correct BENIGN predictions: 8586 | Number of total BENIGN connections: 8842 | Number of correct ATTACK predictions: 227 | Number of total ATTACK connections: 1318 | Accuracy BENIGN: 0.971047274372314 | Accuracy ATTACK: 0.17223065250379363 \n",
      "Results of ./models\\discr_model-lr=0.0002-batch=64-epochs=1.pth ...\n",
      "Number of total samples: 10160 | Number of correct BENIGN predictions: 8065 | Number of total BENIGN connections: 8842 | Number of correct ATTACK predictions: 940 | Number of total ATTACK connections: 1318 | Accuracy BENIGN: 0.9121239538565935 | Accuracy ATTACK: 0.7132018209408194 \n",
      "Results of ./models\\discr_model-lr=0.0002-batch=64-epochs=10.pth ...\n",
      "Number of total samples: 10160 | Number of correct BENIGN predictions: 8821 | Number of total BENIGN connections: 8842 | Number of correct ATTACK predictions: 901 | Number of total ATTACK connections: 1318 | Accuracy BENIGN: 0.9976249717258538 | Accuracy ATTACK: 0.6836115326251897 \n",
      "Results of ./models\\discr_model-lr=0.0002-batch=64-epochs=11.pth ...\n",
      "Number of total samples: 10160 | Number of correct BENIGN predictions: 8826 | Number of total BENIGN connections: 8842 | Number of correct ATTACK predictions: 903 | Number of total ATTACK connections: 1318 | Accuracy BENIGN: 0.9981904546482696 | Accuracy ATTACK: 0.6851289833080425 \n",
      "Results of ./models\\discr_model-lr=0.0002-batch=64-epochs=12.pth ...\n",
      "Number of total samples: 10160 | Number of correct BENIGN predictions: 8829 | Number of total BENIGN connections: 8842 | Number of correct ATTACK predictions: 882 | Number of total ATTACK connections: 1318 | Accuracy BENIGN: 0.998529744401719 | Accuracy ATTACK: 0.669195751138088 \n",
      "Results of ./models\\discr_model-lr=0.0002-batch=64-epochs=13.pth ...\n",
      "Number of total samples: 10160 | Number of correct BENIGN predictions: 8828 | Number of total BENIGN connections: 8842 | Number of correct ATTACK predictions: 889 | Number of total ATTACK connections: 1318 | Accuracy BENIGN: 0.9984166478172359 | Accuracy ATTACK: 0.6745068285280729 \n",
      "Results of ./models\\discr_model-lr=0.0002-batch=64-epochs=14.pth ...\n",
      "Number of total samples: 10160 | Number of correct BENIGN predictions: 8827 | Number of total BENIGN connections: 8842 | Number of correct ATTACK predictions: 943 | Number of total ATTACK connections: 1318 | Accuracy BENIGN: 0.9983035512327527 | Accuracy ATTACK: 0.7154779969650986 \n",
      "Results of ./models\\discr_model-lr=0.0002-batch=64-epochs=15.pth ...\n",
      "Number of total samples: 10160 | Number of correct BENIGN predictions: 8828 | Number of total BENIGN connections: 8842 | Number of correct ATTACK predictions: 970 | Number of total ATTACK connections: 1318 | Accuracy BENIGN: 0.9984166478172359 | Accuracy ATTACK: 0.7359635811836115 \n",
      "Results of ./models\\discr_model-lr=0.0002-batch=64-epochs=16.pth ...\n",
      "Number of total samples: 10160 | Number of correct BENIGN predictions: 8826 | Number of total BENIGN connections: 8842 | Number of correct ATTACK predictions: 989 | Number of total ATTACK connections: 1318 | Accuracy BENIGN: 0.9981904546482696 | Accuracy ATTACK: 0.7503793626707133 \n",
      "Results of ./models\\discr_model-lr=0.0002-batch=64-epochs=17.pth ...\n",
      "Number of total samples: 10160 | Number of correct BENIGN predictions: 8828 | Number of total BENIGN connections: 8842 | Number of correct ATTACK predictions: 934 | Number of total ATTACK connections: 1318 | Accuracy BENIGN: 0.9984166478172359 | Accuracy ATTACK: 0.708649468892261 \n",
      "Results of ./models\\discr_model-lr=0.0002-batch=64-epochs=18.pth ...\n",
      "Number of total samples: 10160 | Number of correct BENIGN predictions: 8828 | Number of total BENIGN connections: 8842 | Number of correct ATTACK predictions: 911 | Number of total ATTACK connections: 1318 | Accuracy BENIGN: 0.9984166478172359 | Accuracy ATTACK: 0.6911987860394537 \n",
      "Results of ./models\\discr_model-lr=0.0002-batch=64-epochs=19.pth ...\n",
      "Number of total samples: 10160 | Number of correct BENIGN predictions: 8827 | Number of total BENIGN connections: 8842 | Number of correct ATTACK predictions: 938 | Number of total ATTACK connections: 1318 | Accuracy BENIGN: 0.9983035512327527 | Accuracy ATTACK: 0.7116843702579666 \n",
      "Results of ./models\\discr_model-lr=0.0002-batch=64-epochs=2.pth ...\n",
      "Number of total samples: 10160 | Number of correct BENIGN predictions: 8043 | Number of total BENIGN connections: 8842 | Number of correct ATTACK predictions: 1017 | Number of total ATTACK connections: 1318 | Accuracy BENIGN: 0.9096358289979642 | Accuracy ATTACK: 0.7716236722306525 \n",
      "Results of ./models\\discr_model-lr=0.0002-batch=64-epochs=20.pth ...\n",
      "Number of total samples: 10160 | Number of correct BENIGN predictions: 8831 | Number of total BENIGN connections: 8842 | Number of correct ATTACK predictions: 881 | Number of total ATTACK connections: 1318 | Accuracy BENIGN: 0.9987559375706854 | Accuracy ATTACK: 0.6684370257966616 \n",
      "Results of ./models\\discr_model-lr=0.0002-batch=64-epochs=21.pth ...\n",
      "Number of total samples: 10160 | Number of correct BENIGN predictions: 8827 | Number of total BENIGN connections: 8842 | Number of correct ATTACK predictions: 976 | Number of total ATTACK connections: 1318 | Accuracy BENIGN: 0.9983035512327527 | Accuracy ATTACK: 0.7405159332321699 \n",
      "Results of ./models\\discr_model-lr=0.0002-batch=64-epochs=22.pth ...\n",
      "Number of total samples: 10160 | Number of correct BENIGN predictions: 8823 | Number of total BENIGN connections: 8842 | Number of correct ATTACK predictions: 881 | Number of total ATTACK connections: 1318 | Accuracy BENIGN: 0.9978511648948202 | Accuracy ATTACK: 0.6684370257966616 \n",
      "Results of ./models\\discr_model-lr=0.0002-batch=64-epochs=23.pth ...\n",
      "Number of total samples: 10160 | Number of correct BENIGN predictions: 8829 | Number of total BENIGN connections: 8842 | Number of correct ATTACK predictions: 915 | Number of total ATTACK connections: 1318 | Accuracy BENIGN: 0.998529744401719 | Accuracy ATTACK: 0.6942336874051593 \n",
      "Results of ./models\\discr_model-lr=0.0002-batch=64-epochs=24.pth ...\n",
      "Number of total samples: 10160 | Number of correct BENIGN predictions: 8827 | Number of total BENIGN connections: 8842 | Number of correct ATTACK predictions: 922 | Number of total ATTACK connections: 1318 | Accuracy BENIGN: 0.9983035512327527 | Accuracy ATTACK: 0.6995447647951442 \n",
      "Results of ./models\\discr_model-lr=0.0002-batch=64-epochs=25.pth ...\n",
      "Number of total samples: 10160 | Number of correct BENIGN predictions: 8829 | Number of total BENIGN connections: 8842 | Number of correct ATTACK predictions: 943 | Number of total ATTACK connections: 1318 | Accuracy BENIGN: 0.998529744401719 | Accuracy ATTACK: 0.7154779969650986 \n",
      "Results of ./models\\discr_model-lr=0.0002-batch=64-epochs=26.pth ...\n",
      "Number of total samples: 10160 | Number of correct BENIGN predictions: 8829 | Number of total BENIGN connections: 8842 | Number of correct ATTACK predictions: 960 | Number of total ATTACK connections: 1318 | Accuracy BENIGN: 0.998529744401719 | Accuracy ATTACK: 0.7283763277693475 \n",
      "Results of ./models\\discr_model-lr=0.0002-batch=64-epochs=27.pth ...\n",
      "Number of total samples: 10160 | Number of correct BENIGN predictions: 8826 | Number of total BENIGN connections: 8842 | Number of correct ATTACK predictions: 941 | Number of total ATTACK connections: 1318 | Accuracy BENIGN: 0.9981904546482696 | Accuracy ATTACK: 0.7139605462822458 \n",
      "Results of ./models\\discr_model-lr=0.0002-batch=64-epochs=28.pth ...\n",
      "Number of total samples: 10160 | Number of correct BENIGN predictions: 8822 | Number of total BENIGN connections: 8842 | Number of correct ATTACK predictions: 953 | Number of total ATTACK connections: 1318 | Accuracy BENIGN: 0.9977380683103371 | Accuracy ATTACK: 0.7230652503793626 \n",
      "Results of ./models\\discr_model-lr=0.0002-batch=64-epochs=29.pth ...\n",
      "Number of total samples: 10160 | Number of correct BENIGN predictions: 8822 | Number of total BENIGN connections: 8842 | Number of correct ATTACK predictions: 1046 | Number of total ATTACK connections: 1318 | Accuracy BENIGN: 0.9977380683103371 | Accuracy ATTACK: 0.7936267071320182 \n",
      "Results of ./models\\discr_model-lr=0.0002-batch=64-epochs=3.pth ...\n",
      "Number of total samples: 10160 | Number of correct BENIGN predictions: 8038 | Number of total BENIGN connections: 8842 | Number of correct ATTACK predictions: 1034 | Number of total ATTACK connections: 1318 | Accuracy BENIGN: 0.9090703460755485 | Accuracy ATTACK: 0.7845220030349014 \n",
      "Results of ./models\\discr_model-lr=0.0002-batch=64-epochs=30.pth ...\n",
      "Number of total samples: 10160 | Number of correct BENIGN predictions: 8822 | Number of total BENIGN connections: 8842 | Number of correct ATTACK predictions: 985 | Number of total ATTACK connections: 1318 | Accuracy BENIGN: 0.9977380683103371 | Accuracy ATTACK: 0.7473444613050075 \n",
      "Results of ./models\\discr_model-lr=0.0002-batch=64-epochs=31.pth ...\n",
      "Number of total samples: 10160 | Number of correct BENIGN predictions: 8819 | Number of total BENIGN connections: 8842 | Number of correct ATTACK predictions: 938 | Number of total ATTACK connections: 1318 | Accuracy BENIGN: 0.9973987785568876 | Accuracy ATTACK: 0.7116843702579666 \n",
      "Results of ./models\\discr_model-lr=0.0002-batch=64-epochs=32.pth ...\n",
      "Number of total samples: 10160 | Number of correct BENIGN predictions: 8824 | Number of total BENIGN connections: 8842 | Number of correct ATTACK predictions: 1043 | Number of total ATTACK connections: 1318 | Accuracy BENIGN: 0.9979642614793033 | Accuracy ATTACK: 0.791350531107739 \n",
      "Results of ./models\\discr_model-lr=0.0002-batch=64-epochs=33.pth ...\n",
      "Number of total samples: 10160 | Number of correct BENIGN predictions: 8826 | Number of total BENIGN connections: 8842 | Number of correct ATTACK predictions: 1029 | Number of total ATTACK connections: 1318 | Accuracy BENIGN: 0.9981904546482696 | Accuracy ATTACK: 0.7807283763277694 \n",
      "Results of ./models\\discr_model-lr=0.0002-batch=64-epochs=34.pth ...\n",
      "Number of total samples: 10160 | Number of correct BENIGN predictions: 8803 | Number of total BENIGN connections: 8842 | Number of correct ATTACK predictions: 1047 | Number of total ATTACK connections: 1318 | Accuracy BENIGN: 0.9955892332051572 | Accuracy ATTACK: 0.7943854324734446 \n",
      "Results of ./models\\discr_model-lr=0.0002-batch=64-epochs=35.pth ...\n",
      "Number of total samples: 10160 | Number of correct BENIGN predictions: 8827 | Number of total BENIGN connections: 8842 | Number of correct ATTACK predictions: 1035 | Number of total ATTACK connections: 1318 | Accuracy BENIGN: 0.9983035512327527 | Accuracy ATTACK: 0.7852807283763278 \n",
      "Results of ./models\\discr_model-lr=0.0002-batch=64-epochs=36.pth ...\n",
      "Number of total samples: 10160 | Number of correct BENIGN predictions: 8808 | Number of total BENIGN connections: 8842 | Number of correct ATTACK predictions: 1042 | Number of total ATTACK connections: 1318 | Accuracy BENIGN: 0.9961547161275729 | Accuracy ATTACK: 0.7905918057663126 \n",
      "Results of ./models\\discr_model-lr=0.0002-batch=64-epochs=37.pth ...\n",
      "Number of total samples: 10160 | Number of correct BENIGN predictions: 8823 | Number of total BENIGN connections: 8842 | Number of correct ATTACK predictions: 1037 | Number of total ATTACK connections: 1318 | Accuracy BENIGN: 0.9978511648948202 | Accuracy ATTACK: 0.7867981790591806 \n",
      "Results of ./models\\discr_model-lr=0.0002-batch=64-epochs=38.pth ...\n",
      "Number of total samples: 10160 | Number of correct BENIGN predictions: 8802 | Number of total BENIGN connections: 8842 | Number of correct ATTACK predictions: 1046 | Number of total ATTACK connections: 1318 | Accuracy BENIGN: 0.995476136620674 | Accuracy ATTACK: 0.7936267071320182 \n",
      "Results of ./models\\discr_model-lr=0.0002-batch=64-epochs=39.pth ...\n",
      "Number of total samples: 10160 | Number of correct BENIGN predictions: 8823 | Number of total BENIGN connections: 8842 | Number of correct ATTACK predictions: 1037 | Number of total ATTACK connections: 1318 | Accuracy BENIGN: 0.9978511648948202 | Accuracy ATTACK: 0.7867981790591806 \n",
      "Results of ./models\\discr_model-lr=0.0002-batch=64-epochs=4.pth ...\n",
      "Number of total samples: 10160 | Number of correct BENIGN predictions: 8191 | Number of total BENIGN connections: 8842 | Number of correct ATTACK predictions: 1031 | Number of total ATTACK connections: 1318 | Accuracy BENIGN: 0.9263741235014703 | Accuracy ATTACK: 0.7822458270106222 \n",
      "Results of ./models\\discr_model-lr=0.0002-batch=64-epochs=40.pth ...\n",
      "Number of total samples: 10160 | Number of correct BENIGN predictions: 8804 | Number of total BENIGN connections: 8842 | Number of correct ATTACK predictions: 1036 | Number of total ATTACK connections: 1318 | Accuracy BENIGN: 0.9957023297896404 | Accuracy ATTACK: 0.7860394537177542 \n",
      "Results of ./models\\discr_model-lr=0.0002-batch=64-epochs=41.pth ...\n",
      "Number of total samples: 10160 | Number of correct BENIGN predictions: 8817 | Number of total BENIGN connections: 8842 | Number of correct ATTACK predictions: 1046 | Number of total ATTACK connections: 1318 | Accuracy BENIGN: 0.9971725853879213 | Accuracy ATTACK: 0.7936267071320182 \n",
      "Results of ./models\\discr_model-lr=0.0002-batch=64-epochs=42.pth ...\n",
      "Number of total samples: 10160 | Number of correct BENIGN predictions: 8820 | Number of total BENIGN connections: 8842 | Number of correct ATTACK predictions: 1040 | Number of total ATTACK connections: 1318 | Accuracy BENIGN: 0.9975118751413707 | Accuracy ATTACK: 0.7890743550834598 \n",
      "Results of ./models\\discr_model-lr=0.0002-batch=64-epochs=43.pth ...\n",
      "Number of total samples: 10160 | Number of correct BENIGN predictions: 8812 | Number of total BENIGN connections: 8842 | Number of correct ATTACK predictions: 992 | Number of total ATTACK connections: 1318 | Accuracy BENIGN: 0.9966071024655055 | Accuracy ATTACK: 0.7526555386949925 \n",
      "Results of ./models\\discr_model-lr=0.0002-batch=64-epochs=44.pth ...\n",
      "Number of total samples: 10160 | Number of correct BENIGN predictions: 8807 | Number of total BENIGN connections: 8842 | Number of correct ATTACK predictions: 1058 | Number of total ATTACK connections: 1318 | Accuracy BENIGN: 0.9960416195430898 | Accuracy ATTACK: 0.802731411229135 \n",
      "Results of ./models\\discr_model-lr=0.0002-batch=64-epochs=45.pth ...\n",
      "Number of total samples: 10160 | Number of correct BENIGN predictions: 8803 | Number of total BENIGN connections: 8842 | Number of correct ATTACK predictions: 1033 | Number of total ATTACK connections: 1318 | Accuracy BENIGN: 0.9955892332051572 | Accuracy ATTACK: 0.783763277693475 \n",
      "Results of ./models\\discr_model-lr=0.0002-batch=64-epochs=46.pth ...\n",
      "Number of total samples: 10160 | Number of correct BENIGN predictions: 8803 | Number of total BENIGN connections: 8842 | Number of correct ATTACK predictions: 1049 | Number of total ATTACK connections: 1318 | Accuracy BENIGN: 0.9955892332051572 | Accuracy ATTACK: 0.7959028831562974 \n",
      "Results of ./models\\discr_model-lr=0.0002-batch=64-epochs=47.pth ...\n",
      "Number of total samples: 10160 | Number of correct BENIGN predictions: 8810 | Number of total BENIGN connections: 8842 | Number of correct ATTACK predictions: 1047 | Number of total ATTACK connections: 1318 | Accuracy BENIGN: 0.9963809092965392 | Accuracy ATTACK: 0.7943854324734446 \n",
      "Results of ./models\\discr_model-lr=0.0002-batch=64-epochs=48.pth ...\n",
      "Number of total samples: 10160 | Number of correct BENIGN predictions: 8808 | Number of total BENIGN connections: 8842 | Number of correct ATTACK predictions: 1053 | Number of total ATTACK connections: 1318 | Accuracy BENIGN: 0.9961547161275729 | Accuracy ATTACK: 0.798937784522003 \n",
      "Results of ./models\\discr_model-lr=0.0002-batch=64-epochs=49.pth ...\n",
      "Number of total samples: 10160 | Number of correct BENIGN predictions: 8827 | Number of total BENIGN connections: 8842 | Number of correct ATTACK predictions: 933 | Number of total ATTACK connections: 1318 | Accuracy BENIGN: 0.9983035512327527 | Accuracy ATTACK: 0.7078907435508346 \n",
      "Results of ./models\\discr_model-lr=0.0002-batch=64-epochs=5.pth ...\n",
      "Number of total samples: 10160 | Number of correct BENIGN predictions: 8376 | Number of total BENIGN connections: 8842 | Number of correct ATTACK predictions: 930 | Number of total ATTACK connections: 1318 | Accuracy BENIGN: 0.9472969916308528 | Accuracy ATTACK: 0.7056145675265554 \n",
      "Results of ./models\\discr_model-lr=0.0002-batch=64-epochs=50.pth ...\n",
      "Number of total samples: 10160 | Number of correct BENIGN predictions: 8826 | Number of total BENIGN connections: 8842 | Number of correct ATTACK predictions: 917 | Number of total ATTACK connections: 1318 | Accuracy BENIGN: 0.9981904546482696 | Accuracy ATTACK: 0.6957511380880121 \n",
      "Results of ./models\\discr_model-lr=0.0002-batch=64-epochs=51.pth ...\n",
      "Number of total samples: 10160 | Number of correct BENIGN predictions: 8827 | Number of total BENIGN connections: 8842 | Number of correct ATTACK predictions: 1009 | Number of total ATTACK connections: 1318 | Accuracy BENIGN: 0.9983035512327527 | Accuracy ATTACK: 0.7655538694992413 \n",
      "Results of ./models\\discr_model-lr=0.0002-batch=64-epochs=52.pth ...\n",
      "Number of total samples: 10160 | Number of correct BENIGN predictions: 8829 | Number of total BENIGN connections: 8842 | Number of correct ATTACK predictions: 914 | Number of total ATTACK connections: 1318 | Accuracy BENIGN: 0.998529744401719 | Accuracy ATTACK: 0.6934749620637329 \n",
      "Results of ./models\\discr_model-lr=0.0002-batch=64-epochs=53.pth ...\n",
      "Number of total samples: 10160 | Number of correct BENIGN predictions: 8829 | Number of total BENIGN connections: 8842 | Number of correct ATTACK predictions: 976 | Number of total ATTACK connections: 1318 | Accuracy BENIGN: 0.998529744401719 | Accuracy ATTACK: 0.7405159332321699 \n",
      "Results of ./models\\discr_model-lr=0.0002-batch=64-epochs=54.pth ...\n",
      "Number of total samples: 10160 | Number of correct BENIGN predictions: 8821 | Number of total BENIGN connections: 8842 | Number of correct ATTACK predictions: 1045 | Number of total ATTACK connections: 1318 | Accuracy BENIGN: 0.9976249717258538 | Accuracy ATTACK: 0.7928679817905918 \n",
      "Results of ./models\\discr_model-lr=0.0002-batch=64-epochs=55.pth ...\n",
      "Number of total samples: 10160 | Number of correct BENIGN predictions: 8821 | Number of total BENIGN connections: 8842 | Number of correct ATTACK predictions: 1040 | Number of total ATTACK connections: 1318 | Accuracy BENIGN: 0.9976249717258538 | Accuracy ATTACK: 0.7890743550834598 \n",
      "Results of ./models\\discr_model-lr=0.0002-batch=64-epochs=56.pth ...\n",
      "Number of total samples: 10160 | Number of correct BENIGN predictions: 8820 | Number of total BENIGN connections: 8842 | Number of correct ATTACK predictions: 988 | Number of total ATTACK connections: 1318 | Accuracy BENIGN: 0.9975118751413707 | Accuracy ATTACK: 0.7496206373292867 \n",
      "Results of ./models\\discr_model-lr=0.0002-batch=64-epochs=57.pth ...\n",
      "Number of total samples: 10160 | Number of correct BENIGN predictions: 8826 | Number of total BENIGN connections: 8842 | Number of correct ATTACK predictions: 973 | Number of total ATTACK connections: 1318 | Accuracy BENIGN: 0.9981904546482696 | Accuracy ATTACK: 0.7382397572078907 \n",
      "Results of ./models\\discr_model-lr=0.0002-batch=64-epochs=58.pth ...\n",
      "Number of total samples: 10160 | Number of correct BENIGN predictions: 8826 | Number of total BENIGN connections: 8842 | Number of correct ATTACK predictions: 975 | Number of total ATTACK connections: 1318 | Accuracy BENIGN: 0.9981904546482696 | Accuracy ATTACK: 0.7397572078907435 \n",
      "Results of ./models\\discr_model-lr=0.0002-batch=64-epochs=59.pth ...\n",
      "Number of total samples: 10160 | Number of correct BENIGN predictions: 8825 | Number of total BENIGN connections: 8842 | Number of correct ATTACK predictions: 980 | Number of total ATTACK connections: 1318 | Accuracy BENIGN: 0.9980773580637865 | Accuracy ATTACK: 0.7435508345978755 \n",
      "Results of ./models\\discr_model-lr=0.0002-batch=64-epochs=6.pth ...\n",
      "Number of total samples: 10160 | Number of correct BENIGN predictions: 8290 | Number of total BENIGN connections: 8842 | Number of correct ATTACK predictions: 937 | Number of total ATTACK connections: 1318 | Accuracy BENIGN: 0.937570685365302 | Accuracy ATTACK: 0.7109256449165402 \n",
      "Results of ./models\\discr_model-lr=0.0002-batch=64-epochs=60.pth ...\n",
      "Number of total samples: 10160 | Number of correct BENIGN predictions: 8819 | Number of total BENIGN connections: 8842 | Number of correct ATTACK predictions: 1011 | Number of total ATTACK connections: 1318 | Accuracy BENIGN: 0.9973987785568876 | Accuracy ATTACK: 0.7670713201820941 \n",
      "Results of ./models\\discr_model-lr=0.0002-batch=64-epochs=61.pth ...\n",
      "Number of total samples: 10160 | Number of correct BENIGN predictions: 8818 | Number of total BENIGN connections: 8842 | Number of correct ATTACK predictions: 995 | Number of total ATTACK connections: 1318 | Accuracy BENIGN: 0.9972856819724044 | Accuracy ATTACK: 0.7549317147192717 \n",
      "Results of ./models\\discr_model-lr=0.0002-batch=64-epochs=62.pth ...\n",
      "Number of total samples: 10160 | Number of correct BENIGN predictions: 8813 | Number of total BENIGN connections: 8842 | Number of correct ATTACK predictions: 1051 | Number of total ATTACK connections: 1318 | Accuracy BENIGN: 0.9967201990499887 | Accuracy ATTACK: 0.7974203338391502 \n",
      "Results of ./models\\discr_model-lr=0.0002-batch=64-epochs=63.pth ...\n",
      "Number of total samples: 10160 | Number of correct BENIGN predictions: 8811 | Number of total BENIGN connections: 8842 | Number of correct ATTACK predictions: 1054 | Number of total ATTACK connections: 1318 | Accuracy BENIGN: 0.9964940058810224 | Accuracy ATTACK: 0.7996965098634294 \n",
      "Results of ./models\\discr_model-lr=0.0002-batch=64-epochs=64.pth ...\n",
      "Number of total samples: 10160 | Number of correct BENIGN predictions: 8813 | Number of total BENIGN connections: 8842 | Number of correct ATTACK predictions: 1053 | Number of total ATTACK connections: 1318 | Accuracy BENIGN: 0.9967201990499887 | Accuracy ATTACK: 0.798937784522003 \n",
      "Results of ./models\\discr_model-lr=0.0002-batch=64-epochs=65.pth ...\n",
      "Number of total samples: 10160 | Number of correct BENIGN predictions: 8825 | Number of total BENIGN connections: 8842 | Number of correct ATTACK predictions: 461 | Number of total ATTACK connections: 1318 | Accuracy BENIGN: 0.9980773580637865 | Accuracy ATTACK: 0.3497723823975721 \n",
      "Results of ./models\\discr_model-lr=0.0002-batch=64-epochs=66.pth ...\n",
      "Number of total samples: 10160 | Number of correct BENIGN predictions: 8783 | Number of total BENIGN connections: 8842 | Number of correct ATTACK predictions: 1060 | Number of total ATTACK connections: 1318 | Accuracy BENIGN: 0.9933273015154942 | Accuracy ATTACK: 0.8042488619119879 \n",
      "Results of ./models\\discr_model-lr=0.0002-batch=64-epochs=67.pth ...\n",
      "Number of total samples: 10160 | Number of correct BENIGN predictions: 8813 | Number of total BENIGN connections: 8842 | Number of correct ATTACK predictions: 1050 | Number of total ATTACK connections: 1318 | Accuracy BENIGN: 0.9967201990499887 | Accuracy ATTACK: 0.7966616084977238 \n",
      "Results of ./models\\discr_model-lr=0.0002-batch=64-epochs=68.pth ...\n",
      "Number of total samples: 10160 | Number of correct BENIGN predictions: 8781 | Number of total BENIGN connections: 8842 | Number of correct ATTACK predictions: 1046 | Number of total ATTACK connections: 1318 | Accuracy BENIGN: 0.993101108346528 | Accuracy ATTACK: 0.7936267071320182 \n",
      "Results of ./models\\discr_model-lr=0.0002-batch=64-epochs=69.pth ...\n",
      "Number of total samples: 10160 | Number of correct BENIGN predictions: 8790 | Number of total BENIGN connections: 8842 | Number of correct ATTACK predictions: 1015 | Number of total ATTACK connections: 1318 | Accuracy BENIGN: 0.9941189776068763 | Accuracy ATTACK: 0.7701062215477997 \n",
      "Results of ./models\\discr_model-lr=0.0002-batch=64-epochs=7.pth ...\n",
      "Number of total samples: 10160 | Number of correct BENIGN predictions: 8369 | Number of total BENIGN connections: 8842 | Number of correct ATTACK predictions: 936 | Number of total ATTACK connections: 1318 | Accuracy BENIGN: 0.9465053155394707 | Accuracy ATTACK: 0.7101669195751138 \n",
      "Results of ./models\\discr_model-lr=0.0002-batch=64-epochs=70.pth ...\n",
      "Number of total samples: 10160 | Number of correct BENIGN predictions: 8809 | Number of total BENIGN connections: 8842 | Number of correct ATTACK predictions: 993 | Number of total ATTACK connections: 1318 | Accuracy BENIGN: 0.9962678127120561 | Accuracy ATTACK: 0.7534142640364189 \n",
      "Results of ./models\\discr_model-lr=0.0002-batch=64-epochs=71.pth ...\n",
      "Number of total samples: 10160 | Number of correct BENIGN predictions: 8812 | Number of total BENIGN connections: 8842 | Number of correct ATTACK predictions: 977 | Number of total ATTACK connections: 1318 | Accuracy BENIGN: 0.9966071024655055 | Accuracy ATTACK: 0.7412746585735963 \n",
      "Results of ./models\\discr_model-lr=0.0002-batch=64-epochs=72.pth ...\n",
      "Number of total samples: 10160 | Number of correct BENIGN predictions: 8810 | Number of total BENIGN connections: 8842 | Number of correct ATTACK predictions: 982 | Number of total ATTACK connections: 1318 | Accuracy BENIGN: 0.9963809092965392 | Accuracy ATTACK: 0.7450682852807283 \n",
      "Results of ./models\\discr_model-lr=0.0002-batch=64-epochs=73.pth ...\n",
      "Number of total samples: 10160 | Number of correct BENIGN predictions: 8810 | Number of total BENIGN connections: 8842 | Number of correct ATTACK predictions: 991 | Number of total ATTACK connections: 1318 | Accuracy BENIGN: 0.9963809092965392 | Accuracy ATTACK: 0.7518968133535661 \n",
      "Results of ./models\\discr_model-lr=0.0002-batch=64-epochs=74.pth ...\n",
      "Number of total samples: 10160 | Number of correct BENIGN predictions: 8793 | Number of total BENIGN connections: 8842 | Number of correct ATTACK predictions: 963 | Number of total ATTACK connections: 1318 | Accuracy BENIGN: 0.9944582673603257 | Accuracy ATTACK: 0.7306525037936267 \n",
      "Results of ./models\\discr_model-lr=0.0002-batch=64-epochs=75.pth ...\n",
      "Number of total samples: 10160 | Number of correct BENIGN predictions: 8810 | Number of total BENIGN connections: 8842 | Number of correct ATTACK predictions: 1051 | Number of total ATTACK connections: 1318 | Accuracy BENIGN: 0.9963809092965392 | Accuracy ATTACK: 0.7974203338391502 \n",
      "Results of ./models\\discr_model-lr=0.0002-batch=64-epochs=76.pth ...\n",
      "Number of total samples: 10160 | Number of correct BENIGN predictions: 8823 | Number of total BENIGN connections: 8842 | Number of correct ATTACK predictions: 92 | Number of total ATTACK connections: 1318 | Accuracy BENIGN: 0.9978511648948202 | Accuracy ATTACK: 0.06980273141122914 \n",
      "Results of ./models\\discr_model-lr=0.0002-batch=64-epochs=77.pth ...\n",
      "Number of total samples: 10160 | Number of correct BENIGN predictions: 8817 | Number of total BENIGN connections: 8842 | Number of correct ATTACK predictions: 1041 | Number of total ATTACK connections: 1318 | Accuracy BENIGN: 0.9971725853879213 | Accuracy ATTACK: 0.7898330804248862 \n",
      "Results of ./models\\discr_model-lr=0.0002-batch=64-epochs=78.pth ...\n",
      "Number of total samples: 10160 | Number of correct BENIGN predictions: 8805 | Number of total BENIGN connections: 8842 | Number of correct ATTACK predictions: 835 | Number of total ATTACK connections: 1318 | Accuracy BENIGN: 0.9958154263741235 | Accuracy ATTACK: 0.633535660091047 \n",
      "Results of ./models\\discr_model-lr=0.0002-batch=64-epochs=79.pth ...\n",
      "Number of total samples: 10160 | Number of correct BENIGN predictions: 8823 | Number of total BENIGN connections: 8842 | Number of correct ATTACK predictions: 934 | Number of total ATTACK connections: 1318 | Accuracy BENIGN: 0.9978511648948202 | Accuracy ATTACK: 0.708649468892261 \n",
      "Results of ./models\\discr_model-lr=0.0002-batch=64-epochs=8.pth ...\n",
      "Number of total samples: 10160 | Number of correct BENIGN predictions: 8415 | Number of total BENIGN connections: 8842 | Number of correct ATTACK predictions: 930 | Number of total ATTACK connections: 1318 | Accuracy BENIGN: 0.9517077584256955 | Accuracy ATTACK: 0.7056145675265554 \n",
      "Results of ./models\\discr_model-lr=0.0002-batch=64-epochs=80.pth ...\n",
      "Number of total samples: 10160 | Number of correct BENIGN predictions: 8824 | Number of total BENIGN connections: 8842 | Number of correct ATTACK predictions: 993 | Number of total ATTACK connections: 1318 | Accuracy BENIGN: 0.9979642614793033 | Accuracy ATTACK: 0.7534142640364189 \n",
      "Results of ./models\\discr_model-lr=0.0002-batch=64-epochs=81.pth ...\n",
      "Number of total samples: 10160 | Number of correct BENIGN predictions: 8785 | Number of total BENIGN connections: 8842 | Number of correct ATTACK predictions: 986 | Number of total ATTACK connections: 1318 | Accuracy BENIGN: 0.9935534946844605 | Accuracy ATTACK: 0.7481031866464339 \n",
      "Results of ./models\\discr_model-lr=0.0002-batch=64-epochs=82.pth ...\n",
      "Number of total samples: 10160 | Number of correct BENIGN predictions: 8814 | Number of total BENIGN connections: 8842 | Number of correct ATTACK predictions: 976 | Number of total ATTACK connections: 1318 | Accuracy BENIGN: 0.9968332956344719 | Accuracy ATTACK: 0.7405159332321699 \n",
      "Results of ./models\\discr_model-lr=0.0002-batch=64-epochs=83.pth ...\n",
      "Number of total samples: 10160 | Number of correct BENIGN predictions: 8798 | Number of total BENIGN connections: 8842 | Number of correct ATTACK predictions: 1043 | Number of total ATTACK connections: 1318 | Accuracy BENIGN: 0.9950237502827415 | Accuracy ATTACK: 0.791350531107739 \n",
      "Results of ./models\\discr_model-lr=0.0002-batch=64-epochs=84.pth ...\n",
      "Number of total samples: 10160 | Number of correct BENIGN predictions: 8806 | Number of total BENIGN connections: 8842 | Number of correct ATTACK predictions: 1045 | Number of total ATTACK connections: 1318 | Accuracy BENIGN: 0.9959285229586067 | Accuracy ATTACK: 0.7928679817905918 \n",
      "Results of ./models\\discr_model-lr=0.0002-batch=64-epochs=85.pth ...\n",
      "Number of total samples: 10160 | Number of correct BENIGN predictions: 8796 | Number of total BENIGN connections: 8842 | Number of correct ATTACK predictions: 1046 | Number of total ATTACK connections: 1318 | Accuracy BENIGN: 0.9947975571137752 | Accuracy ATTACK: 0.7936267071320182 \n",
      "Results of ./models\\discr_model-lr=0.0002-batch=64-epochs=86.pth ...\n",
      "Number of total samples: 10160 | Number of correct BENIGN predictions: 8792 | Number of total BENIGN connections: 8842 | Number of correct ATTACK predictions: 1045 | Number of total ATTACK connections: 1318 | Accuracy BENIGN: 0.9943451707758426 | Accuracy ATTACK: 0.7928679817905918 \n",
      "Results of ./models\\discr_model-lr=0.0002-batch=64-epochs=87.pth ...\n",
      "Number of total samples: 10160 | Number of correct BENIGN predictions: 8794 | Number of total BENIGN connections: 8842 | Number of correct ATTACK predictions: 1046 | Number of total ATTACK connections: 1318 | Accuracy BENIGN: 0.9945713639448088 | Accuracy ATTACK: 0.7936267071320182 \n",
      "Results of ./models\\discr_model-lr=0.0002-batch=64-epochs=88.pth ...\n",
      "Number of total samples: 10160 | Number of correct BENIGN predictions: 8807 | Number of total BENIGN connections: 8842 | Number of correct ATTACK predictions: 1046 | Number of total ATTACK connections: 1318 | Accuracy BENIGN: 0.9960416195430898 | Accuracy ATTACK: 0.7936267071320182 \n",
      "Results of ./models\\discr_model-lr=0.0002-batch=64-epochs=89.pth ...\n",
      "Number of total samples: 10160 | Number of correct BENIGN predictions: 8808 | Number of total BENIGN connections: 8842 | Number of correct ATTACK predictions: 1046 | Number of total ATTACK connections: 1318 | Accuracy BENIGN: 0.9961547161275729 | Accuracy ATTACK: 0.7936267071320182 \n",
      "Results of ./models\\discr_model-lr=0.0002-batch=64-epochs=9.pth ...\n",
      "Number of total samples: 10160 | Number of correct BENIGN predictions: 8835 | Number of total BENIGN connections: 8842 | Number of correct ATTACK predictions: 448 | Number of total ATTACK connections: 1318 | Accuracy BENIGN: 0.9992083239086179 | Accuracy ATTACK: 0.33990895295902884 \n",
      "Results of ./models\\discr_model-lr=0.0002-batch=64-epochs=90.pth ...\n",
      "Number of total samples: 10160 | Number of correct BENIGN predictions: 8794 | Number of total BENIGN connections: 8842 | Number of correct ATTACK predictions: 1046 | Number of total ATTACK connections: 1318 | Accuracy BENIGN: 0.9945713639448088 | Accuracy ATTACK: 0.7936267071320182 \n",
      "Results of ./models\\discr_model-lr=0.0002-batch=64-epochs=91.pth ...\n",
      "Number of total samples: 10160 | Number of correct BENIGN predictions: 8806 | Number of total BENIGN connections: 8842 | Number of correct ATTACK predictions: 1057 | Number of total ATTACK connections: 1318 | Accuracy BENIGN: 0.9959285229586067 | Accuracy ATTACK: 0.8019726858877086 \n",
      "Results of ./models\\discr_model-lr=0.0002-batch=64-epochs=92.pth ...\n",
      "Number of total samples: 10160 | Number of correct BENIGN predictions: 8808 | Number of total BENIGN connections: 8842 | Number of correct ATTACK predictions: 1048 | Number of total ATTACK connections: 1318 | Accuracy BENIGN: 0.9961547161275729 | Accuracy ATTACK: 0.795144157814871 \n",
      "Results of ./models\\discr_model-lr=0.0002-batch=64-epochs=93.pth ...\n",
      "Number of total samples: 10160 | Number of correct BENIGN predictions: 8806 | Number of total BENIGN connections: 8842 | Number of correct ATTACK predictions: 1061 | Number of total ATTACK connections: 1318 | Accuracy BENIGN: 0.9959285229586067 | Accuracy ATTACK: 0.8050075872534143 \n",
      "Results of ./models\\discr_model-lr=0.0002-batch=64-epochs=94.pth ...\n",
      "Number of total samples: 10160 | Number of correct BENIGN predictions: 8821 | Number of total BENIGN connections: 8842 | Number of correct ATTACK predictions: 1053 | Number of total ATTACK connections: 1318 | Accuracy BENIGN: 0.9976249717258538 | Accuracy ATTACK: 0.798937784522003 \n",
      "Results of ./models\\discr_model-lr=0.0002-batch=64-epochs=95.pth ...\n",
      "Number of total samples: 10160 | Number of correct BENIGN predictions: 8822 | Number of total BENIGN connections: 8842 | Number of correct ATTACK predictions: 1054 | Number of total ATTACK connections: 1318 | Accuracy BENIGN: 0.9977380683103371 | Accuracy ATTACK: 0.7996965098634294 \n",
      "Results of ./models\\discr_model-lr=0.0002-batch=64-epochs=96.pth ...\n",
      "Number of total samples: 10160 | Number of correct BENIGN predictions: 8821 | Number of total BENIGN connections: 8842 | Number of correct ATTACK predictions: 1014 | Number of total ATTACK connections: 1318 | Accuracy BENIGN: 0.9976249717258538 | Accuracy ATTACK: 0.7693474962063733 \n",
      "Results of ./models\\discr_model-lr=0.0002-batch=64-epochs=97.pth ...\n",
      "Number of total samples: 10160 | Number of correct BENIGN predictions: 8820 | Number of total BENIGN connections: 8842 | Number of correct ATTACK predictions: 1059 | Number of total ATTACK connections: 1318 | Accuracy BENIGN: 0.9975118751413707 | Accuracy ATTACK: 0.8034901365705615 \n",
      "Results of ./models\\discr_model-lr=0.0002-batch=64-epochs=98.pth ...\n",
      "Number of total samples: 10160 | Number of correct BENIGN predictions: 8824 | Number of total BENIGN connections: 8842 | Number of correct ATTACK predictions: 1044 | Number of total ATTACK connections: 1318 | Accuracy BENIGN: 0.9979642614793033 | Accuracy ATTACK: 0.7921092564491654 \n",
      "Results of ./models\\discr_model-lr=0.0002-batch=64-epochs=99.pth ...\n",
      "Number of total samples: 10160 | Number of correct BENIGN predictions: 8811 | Number of total BENIGN connections: 8842 | Number of correct ATTACK predictions: 997 | Number of total ATTACK connections: 1318 | Accuracy BENIGN: 0.9964940058810224 | Accuracy ATTACK: 0.7564491654021245 \n",
      "The best pair for BENIGN is {'./models\\\\discr_model-lr=0.0002-batch=64-epochs=9.pth': 0.9992083239086179}\n",
      "The best piar for ATTACK is {'./models\\\\discr_model-lr=0.0002-batch=64-epochs=93.pth': 0.8050075872534143}\n"
     ]
    }
   ],
   "source": [
    "num_samples = len(nb15_dataset_features)\n",
    "best_accuracy_normal = 0\n",
    "best_accuracy_attack = 0\n",
    "total_benign_conn = nb15_dataset_labels.value_counts().BENIGN\n",
    "total_attack_conn = nb15_dataset_labels.value_counts().ATTACK\n",
    "\n",
    "for PATH_discr in discr_models_lst:\n",
    "    discriminator.load_state_dict(torch.load(PATH_discr))\n",
    "    discriminator.eval()\n",
    "    correct_prediction_normal = 0\n",
    "    correct_prediction_attack = 0\n",
    "    for i in range(len(nb15_dataset_features)):\n",
    "        row_label = nb15_dataset_labels[i]\n",
    "        row_features = nb15_dataset_features[i]\n",
    "        row_features = torch.tensor(row_features).float()\n",
    "        model_output = discriminator(row_features)\n",
    "        if model_output < 0.5:\n",
    "            attack = True\n",
    "        else:\n",
    "            attack = False\n",
    "        if (row_label == 'BENIGN' and attack == False):\n",
    "            correct_prediction_normal += 1\n",
    "        if (row_label == 'ATTACK' and attack == True):\n",
    "            correct_prediction_attack += 1\n",
    "    current_accuracy_normal = correct_prediction_normal / total_benign_conn\n",
    "    current_accuracy_attack = correct_prediction_attack / total_attack_conn\n",
    "    output = (f'Number of total samples: {num_samples} | '\n",
    "              f'Number of correct BENIGN predictions: {correct_prediction_normal} | '\n",
    "              f'Number of total BENIGN connections: {total_benign_conn} | '\n",
    "              f'Number of correct ATTACK predictions: {correct_prediction_attack} | '\n",
    "              f'Number of total ATTACK connections: {total_attack_conn} | '\n",
    "              f'Accuracy BENIGN: {current_accuracy_normal} | '\n",
    "              f'Accuracy ATTACK: {current_accuracy_attack} ')\n",
    "    if current_accuracy_normal > best_accuracy_normal:\n",
    "        best_pair_normal  = {PATH_discr : current_accuracy_normal}\n",
    "        best_accuracy_normal = current_accuracy_normal\n",
    "    if current_accuracy_attack > best_accuracy_attack:\n",
    "        best_pair_attack = {PATH_discr : current_accuracy_attack}\n",
    "        best_accuracy_attack = current_accuracy_attack\n",
    "    print('Results of ' + str(PATH_discr) + ' ...')\n",
    "    print(output)\n",
    "    file_name = './test_eval/' + 'output-' + PATH_discr[9:-3] + 'txt'\n",
    "    file = open(file_name, 'w')\n",
    "    a = file.write(output)\n",
    "    file.close()\n",
    "\n",
    "print('The best pair for BENIGN is ' + str(best_pair_normal))\n",
    "print('The best piar for ATTACK is ' + str(best_pair_attack))"
   ]
  }
 ],
 "metadata": {
  "kernelspec": {
   "display_name": "Python 3 (ipykernel)",
   "language": "python",
   "name": "python3"
  },
  "language_info": {
   "codemirror_mode": {
    "name": "ipython",
    "version": 3
   },
   "file_extension": ".py",
   "mimetype": "text/x-python",
   "name": "python",
   "nbconvert_exporter": "python",
   "pygments_lexer": "ipython3",
   "version": "3.10.10"
  }
 },
 "nbformat": 4,
 "nbformat_minor": 5
}
